<svg width="350" height="449" viewBox="0 0 350 449" fill="none" xmlns="http://www.w3.org/2000/svg">
<path d="M0 9.99999C0 4.47714 4.47715 0 10 0H340C345.523 0 350 4.47715 350 10V439C350 444.523 345.523 449 340 449H10C4.47715 449 0 444.523 0 439V9.99999Z" fill="#77C85E"/>
<mask id="mask0_5_160" style="mask-type:alpha" maskUnits="userSpaceOnUse" x="0" y="0" width="350" height="449">
<path d="M0 9.99999C0 4.47714 4.47715 0 10 0H340C345.523 0 350 4.47715 350 10V439C350 444.523 345.523 449 340 449H10C4.47715 449 0 444.523 0 439V9.99999Z" fill="#77C85E"/>
</mask>
<g mask="url(#mask0_5_160)">
<circle cx="297.478" cy="42.4181" r="23.095" transform="rotate(2.07729 297.478 42.4181)" fill="white" fill-opacity="0.2"/>
<path fill-rule="evenodd" clip-rule="evenodd" d="M382.871 52.6585C377.643 96.6997 339.384 130.076 294.276 128.44C249.168 126.804 213.428 90.7435 211.404 46.4392L262.182 48.281C264.897 64.6819 278.847 77.4581 296.103 78.084C313.359 78.7099 328.198 66.9779 332.093 50.8168L382.871 52.6585ZM383.477 41.7557L333.005 39.925C331.769 21.9326 317.114 7.4145 298.69 6.74625C280.267 6.07799 264.599 19.4963 262.062 37.3518L211.59 35.5211C215.226 -10.1651 254.272 -45.2872 300.517 -43.6098C346.762 -41.9324 383.16 -4.07395 383.477 41.7557Z" fill="white" fill-opacity="0.2"/>
</g>
</svg>
